<?xml version="1.0" standalone="no"?>
<!DOCTYPE svg PUBLIC "-//W3C//DTD SVG 20010904//EN"
 "http://www.w3.org/TR/2001/REC-SVG-20010904/DTD/svg10.dtd">
<svg version="1.0" xmlns="http://www.w3.org/2000/svg"
 width="500.000000pt" height="500.000000pt" viewBox="0 0 500.000000 500.000000"
 preserveAspectRatio="xMidYMid meet">
<metadata>
Created by potrace 1.11, written by Peter Selinger 2001-2013
</metadata>
<g transform="translate(0.000000,500.000000) scale(0.100000,-0.100000)"
fill="#000000" stroke="none">
<path d="M875 4989 c-219 -28 -416 -126 -577 -285 -163 -162 -259 -360 -288
-594 -14 -116 -14 -3104 0 -3220 58 -469 411 -822 880 -880 116 -14 3104 -14
3220 0 234 29 426 122 592 286 163 162 259 360 288 594 14 116 14 3104 0 3220
-29 234 -122 426 -286 592 -162 163 -360 259 -594 288 -105 13 -3133 12 -3235
-1z m2150 -660 c290 -38 510 -190 631 -434 75 -152 88 -217 88 -450 1 -220
-10 -295 -66 -455 -95 -271 -302 -501 -579 -640 l-57 -29 14 -48 c88 -307 394
-1440 394 -1459 l0 -24 -235 0 -234 0 -10 38 c-5 20 -87 344 -182 720 l-172
682 -306 -2 -305 -3 -125 -717 -126 -718 -217 0 c-168 0 -218 3 -218 13 0 24
609 3527 615 3536 7 13 987 3 1090 -10z"/>
<path d="M2306 3948 c-3 -7 -55 -303 -116 -658 -61 -355 -113 -653 -116 -662
-5 -17 13 -18 286 -18 334 0 398 8 525 69 157 75 253 170 331 326 63 127 85
222 91 385 11 310 -87 479 -320 548 -73 21 -675 31 -681 10z"/>
</g>
</svg>
